<svg width="22" height="22" viewBox="0 0 22 22" fill="none" xmlns="http://www.w3.org/2000/svg">
<path d="M12.6328 10.945L20.7328 2.84495C20.9149 2.63239 21.01 2.35898 20.9992 2.07934C20.9884 1.7997 20.8724 1.53443 20.6746 1.33655C20.4767 1.13867 20.2114 1.02274 19.9318 1.01194C19.6521 1.00114 19.3787 1.09626 19.1662 1.27829L11.0662 9.37829L2.96616 1.26717C2.7536 1.08514 2.48019 0.990027 2.20055 1.00083C1.9209 1.01163 1.65564 1.12755 1.45776 1.32544C1.25987 1.52332 1.14395 1.78859 1.13315 2.06823C1.12235 2.34787 1.21746 2.62128 1.39949 2.83384L9.49949 10.945L1.38838 19.045C1.27207 19.1446 1.1776 19.2671 1.11091 19.405C1.04422 19.5428 1.00674 19.693 1.00083 19.846C0.994917 19.999 1.0207 20.1516 1.07656 20.2942C1.13242 20.4368 1.21715 20.5663 1.32544 20.6746C1.43372 20.7828 1.56322 20.8676 1.7058 20.9234C1.84838 20.9793 2.00098 21.0051 2.154 20.9992C2.30702 20.9933 2.45717 20.9558 2.59502 20.8891C2.73287 20.8224 2.85544 20.7279 2.95505 20.6116L11.0662 12.5116L19.1662 20.6116C19.3787 20.7936 19.6521 20.8888 19.9318 20.878C20.2114 20.8672 20.4767 20.7512 20.6746 20.5534C20.8724 20.3555 20.9884 20.0902 20.9992 19.8106C21.01 19.5309 20.9149 19.2575 20.7328 19.045L12.6328 10.945Z" fill="#EF4444" stroke="#EF4444"/>
</svg>
