<svg width="44" height="44" viewBox="0 0 44 44" fill="none" xmlns="http://www.w3.org/2000/svg">
<path d="M40.405 23.4518C40.046 23.0504 39.848 22.5343 39.848 22C39.848 21.4657 40.046 20.9496 40.405 20.5482L43.2713 17.3806C43.5872 17.0345 43.7833 16.5991 43.8316 16.1367C43.8798 15.6743 43.7778 15.2088 43.54 14.807L39.0614 7.19601C38.826 6.79461 38.4677 6.47644 38.0375 6.28685C37.6072 6.09725 37.127 6.04592 36.6653 6.14016L32.4554 6.97604C31.9197 7.08477 31.3621 6.99714 30.8876 6.72968C30.4132 6.46222 30.0549 6.03343 29.8802 5.52424L28.5142 1.49879C28.364 1.06188 28.0778 0.682402 27.696 0.413988C27.3143 0.145574 26.8563 0.00180111 26.3869 0.0029915H17.4296C16.9413 -0.0220456 16.458 0.110615 16.0537 0.380711C15.6493 0.650807 15.3461 1.04349 15.1903 1.49879L13.9363 5.52424C13.7616 6.03343 13.4033 6.46222 12.9288 6.72968C12.4544 6.99714 11.8967 7.08477 11.3611 6.97604L7.03918 6.14016C6.60151 6.0794 6.15532 6.14725 5.75683 6.33514C5.35834 6.52303 5.02537 6.82257 4.79986 7.19601L0.321232 14.807C0.077505 15.2044 -0.0320825 15.6672 0.00813665 16.1295C0.0483558 16.5917 0.236322 17.0296 0.545163 17.3806L3.38909 20.5482C3.7481 20.9496 3.94609 21.4657 3.94609 22C3.94609 22.5343 3.7481 23.0504 3.38909 23.4518L0.545163 26.6194C0.236322 26.9704 0.0483558 27.4083 0.00813665 27.8705C-0.0320825 28.3327 0.077505 28.7956 0.321232 29.193L4.79986 36.804C5.03521 37.2054 5.39355 37.5236 5.82379 37.7132C6.25404 37.9027 6.73424 37.9541 7.19593 37.8598L11.4058 37.024C11.9415 36.9152 12.4992 37.0029 12.9736 37.2703C13.448 37.5378 13.8064 37.9666 13.9811 38.4758L15.347 42.5012C15.5028 42.9565 15.8061 43.3492 16.2104 43.6193C16.6148 43.8894 17.098 44.022 17.5864 43.997H26.5436C27.0131 43.9982 27.471 43.8544 27.8528 43.586C28.2345 43.3176 28.5207 42.9381 28.671 42.5012L30.0369 38.4758C30.2116 37.9666 30.57 37.5378 31.0444 37.2703C31.5188 37.0029 32.0765 36.9152 32.6122 37.024L36.8221 37.8598C37.2838 37.9541 37.764 37.9027 38.1942 37.7132C38.6245 37.5236 38.9828 37.2054 39.2181 36.804L43.6968 29.193C43.9345 28.7912 44.0366 28.3257 43.9883 27.8633C43.94 27.4009 43.7439 26.9655 43.4281 26.6194L40.405 23.4518ZM37.0684 26.3994L38.8599 28.3791L35.9935 33.2625L33.3511 32.7345C31.7383 32.4107 30.0606 32.6798 28.6365 33.4908C27.2123 34.3018 26.1409 35.5982 25.6255 37.1339L24.7746 39.5976H19.0419L18.2358 37.0899C17.7204 35.5542 16.6489 34.2578 15.2248 33.4468C13.8006 32.6358 12.1229 32.3667 10.5101 32.6905L7.86773 33.2185L4.95662 28.3571L6.74807 26.3774C7.84971 25.1675 8.45875 23.6012 8.45875 21.978C8.45875 20.3548 7.84971 18.7885 6.74807 17.5786L4.95662 15.5989L7.82294 10.7595L10.4653 11.2875C12.0781 11.6113 13.7558 11.3422 15.18 10.5312C16.6041 9.72021 17.6756 8.4238 18.191 6.88806L19.0419 4.40239H24.7746L25.6255 6.91005C26.1409 8.44579 27.2123 9.7422 28.6365 10.5532C30.0606 11.3642 31.7383 11.6333 33.3511 11.3095L35.9935 10.7815L38.8599 15.6649L37.0684 17.6446C35.9791 18.8517 35.3777 20.4089 35.3777 22.022C35.3777 23.6351 35.9791 25.1923 37.0684 26.3994V26.3994ZM21.9082 13.2012C20.1367 13.2012 18.4049 13.7172 16.9318 14.6841C15.4588 15.6509 14.3108 17.0251 13.6328 18.6328C12.9548 20.2406 12.7775 22.0098 13.1231 23.7166C13.4687 25.4234 14.3218 26.9912 15.5745 28.2217C16.8272 29.4522 18.4232 30.2902 20.1608 30.6297C21.8983 30.9692 23.6993 30.795 25.336 30.129C26.9728 29.4631 28.3717 28.3353 29.3559 26.8884C30.3402 25.4414 30.8655 23.7402 30.8655 22C30.8655 19.6664 29.9218 17.4284 28.242 15.7783C26.5622 14.1282 24.2838 13.2012 21.9082 13.2012V13.2012ZM21.9082 26.3994C21.0224 26.3994 20.1565 26.1414 19.42 25.658C18.6835 25.1746 18.1095 24.4875 17.7705 23.6836C17.4315 22.8797 17.3428 21.9951 17.5157 21.1417C17.6885 20.2883 18.115 19.5044 18.7414 18.8892C19.3677 18.2739 20.1657 17.8549 21.0345 17.6851C21.9033 17.5154 22.8038 17.6025 23.6221 17.9355C24.4405 18.2685 25.14 18.8323 25.6321 19.5558C26.1242 20.2793 26.3869 21.1299 26.3869 22C26.3869 23.1668 25.915 24.2858 25.0751 25.1108C24.2352 25.9359 23.096 26.3994 21.9082 26.3994Z" fill="#EF4444"/>
</svg>
